# xmcd
#
# Track frame offsets:
#	150
#	17028
#	36933
#	50555
#	69219
#	89559
#	111889
#	129296
#	146485
#	161685
#	179640
#
# Disc length: 2626 seconds
#
# Revision: 0
# Processed by: cddbd v1.5.2PL0 Copyright (c) Steve Scherf et al.
# Submitted via: EasyCDDAExtractor 2010.4.0.0
#
DISCID=970a400b
DTITLE=The Crabb Family -  The Ballads
DYEAR=2010
DGENRE=Christian 
TTITLE0=I'd Rather Have Jesus
TTITLE1=The Cross
TTITLE2=Wounded Soldier
TTITLE3=Please Come Down To Me
TTITLE4=Redeemer
TTITLE5=The Reason That I'm Standing
TTITLE6=The Shepherd's Call
TTITLE7=Through The Fire
TTITLE8=A Soldier On His Knees
TTITLE9=Letting Go
TTITLE10=Champion Of Love
EXTD=
EXTT0=
EXTT1=
EXTT2=
EXTT3=
EXTT4=
EXTT5=
EXTT6=
EXTT7=
EXTT8=
EXTT9=
EXTT10=
PLAYORDER=
